<svg xmlns="http://www.w3.org/2000/svg" xmlns:xlink="http://www.w3.org/1999/xlink" width="2228" zoomAndPan="magnify" viewBox="0 0 1670.88 412.499988" height="550" preserveAspectRatio="xMidYMid meet" version="1.0"><defs><g/><clipPath id="1aabbc4187"><rect x="0" width="1461" y="0" height="277"/></clipPath><clipPath id="7314a9dae4"><rect x="0" width="185" y="0" height="211"/></clipPath><clipPath id="23cf053a75"><rect x="0" width="1332" y="0" height="79"/></clipPath></defs><g transform="matrix(1, 0, 0, 1, 106, 62)"><g clip-path="url(#1aabbc4187)"><g fill="#ffffff" fill-opacity="1"><g transform="translate(1.478993, 201.402305)"><g><path d="M 127.9375 2.9375 C 109.0625 2.9375 92.585938 0.0703125 78.515625 -5.65625 C 64.453125 -11.394531 52.765625 -19.082031 43.453125 -28.71875 C 34.148438 -38.351562 27.1875 -49.160156 22.5625 -61.140625 C 17.9375 -73.117188 15.625 -85.296875 15.625 -97.671875 C 15.625 -110.296875 17.898438 -122.597656 22.453125 -134.578125 C 27.015625 -146.554688 33.820312 -157.332031 42.875 -166.90625 C 51.925781 -176.476562 63.1875 -184.097656 76.65625 -189.765625 C 90.132812 -195.429688 105.796875 -198.265625 123.640625 -198.265625 C 131.972656 -198.265625 139.492188 -197.90625 146.203125 -197.1875 C 152.910156 -196.46875 159.421875 -195.226562 165.734375 -193.46875 C 172.046875 -191.707031 178.785156 -189.265625 185.953125 -186.140625 L 180.09375 -171.109375 C 168.113281 -177.222656 155.742188 -181.972656 142.984375 -185.359375 C 130.222656 -188.742188 117.851562 -190.4375 105.875 -190.4375 C 95.445312 -190.4375 85.578125 -188.804688 76.265625 -185.546875 C 66.960938 -182.296875 58.695312 -177.21875 51.46875 -170.3125 C 44.238281 -163.414062 38.539062 -154.429688 34.375 -143.359375 C 30.207031 -132.296875 28.125 -118.953125 28.125 -103.328125 C 28.125 -91.992188 30.109375 -81.179688 34.078125 -70.890625 C 38.054688 -60.609375 43.429688 -51.140625 50.203125 -42.484375 C 56.972656 -33.828125 64.65625 -26.335938 73.25 -20.015625 C 81.84375 -13.703125 90.859375 -8.785156 100.296875 -5.265625 C 109.742188 -1.753906 119.023438 0 128.140625 0 C 136.859375 0 144.894531 -1.398438 152.25 -4.203125 C 159.613281 -7.003906 165.960938 -10.8125 171.296875 -15.625 L 171.296875 -111.53125 L 185.953125 -111.53125 L 185.953125 -11.71875 C 178.140625 -6.125 169.117188 -2.28125 158.890625 -0.1875 C 148.671875 1.894531 138.351562 2.9375 127.9375 2.9375 Z M 127.9375 2.9375 "/></g></g></g><g fill="#ffffff" fill-opacity="1"><g transform="translate(210.897013, 201.402305)"><g/></g></g><g fill="#ffffff" fill-opacity="1"><g transform="translate(328.092369, 201.402305)"><g/></g></g><g fill="#ffffff" fill-opacity="1"><g transform="translate(445.315977, 201.402305)"><g><path d="M 28.71875 -87.890625 C 28.71875 -73.703125 30.832031 -61.398438 35.0625 -50.984375 C 39.289062 -40.566406 45.050781 -31.972656 52.34375 -25.203125 C 59.632812 -18.429688 67.9375 -13.414062 77.25 -10.15625 C 86.5625 -6.90625 96.296875 -5.28125 106.453125 -5.28125 C 116.085938 -5.28125 125.785156 -6.710938 135.546875 -9.578125 C 145.316406 -12.441406 154.53125 -16.640625 163.1875 -22.171875 C 171.851562 -27.703125 179.570312 -34.503906 186.34375 -42.578125 C 193.113281 -50.648438 198.453125 -59.894531 202.359375 -70.3125 C 206.265625 -80.726562 208.21875 -92.253906 208.21875 -104.890625 C 208.21875 -119.472656 206.035156 -132.132812 201.671875 -142.875 C 197.316406 -153.625 191.394531 -162.476562 183.90625 -169.4375 C 176.414062 -176.40625 167.914062 -181.613281 158.40625 -185.0625 C 148.90625 -188.519531 139.007812 -190.25 128.71875 -190.25 C 119.082031 -190.25 109.476562 -188.816406 99.90625 -185.953125 C 90.332031 -183.085938 81.28125 -178.820312 72.75 -173.15625 C 64.226562 -167.488281 56.644531 -160.550781 50 -152.34375 C 43.363281 -144.144531 38.15625 -134.640625 34.375 -123.828125 C 30.601562 -113.023438 28.71875 -101.046875 28.71875 -87.890625 Z M 15.625 -97.46875 C 15.625 -111.40625 18.289062 -124.425781 23.625 -136.53125 C 28.96875 -148.644531 36.328125 -159.351562 45.703125 -168.65625 C 55.078125 -177.96875 65.945312 -185.226562 78.3125 -190.4375 C 90.6875 -195.65625 103.972656 -198.265625 118.171875 -198.265625 C 132.367188 -198.265625 145.648438 -195.65625 158.015625 -190.4375 C 170.390625 -185.226562 181.265625 -177.96875 190.640625 -168.65625 C 200.015625 -159.351562 207.367188 -148.644531 212.703125 -136.53125 C 218.046875 -124.425781 220.71875 -111.40625 220.71875 -97.46875 C 220.71875 -83.664062 218.046875 -70.675781 212.703125 -58.5 C 207.367188 -46.320312 200.015625 -35.644531 190.640625 -26.46875 C 181.265625 -17.289062 170.390625 -10.09375 158.015625 -4.875 C 145.648438 0.332031 132.367188 2.9375 118.171875 2.9375 C 103.972656 2.9375 90.6875 0.332031 78.3125 -4.875 C 65.945312 -10.09375 55.078125 -17.289062 45.703125 -26.46875 C 36.328125 -35.644531 28.96875 -46.320312 23.625 -58.5 C 18.289062 -70.675781 15.625 -83.664062 15.625 -97.46875 Z M 15.625 -97.46875 "/></g></g></g><g fill="#ffffff" fill-opacity="1"><g transform="translate(681.659931, 201.402305)"><g><path d="M 5.859375 -193.171875 L 5.859375 -195.328125 L 103.328125 -195.328125 C 110.617188 -195.328125 118.300781 -194.25 126.375 -192.09375 C 134.445312 -189.945312 142.320312 -186.5 150 -181.75 C 157.6875 -177 164.65625 -170.8125 170.90625 -163.1875 C 177.15625 -155.570312 182.132812 -146.359375 185.84375 -135.546875 C 189.5625 -124.742188 191.421875 -112.117188 191.421875 -97.671875 C 191.421875 -82.691406 189.5625 -69.664062 185.84375 -58.59375 C 182.132812 -47.53125 177.15625 -38.253906 170.90625 -30.765625 C 164.65625 -23.273438 157.6875 -17.285156 150 -12.796875 C 142.320312 -8.304688 134.445312 -5.050781 126.375 -3.03125 C 118.300781 -1.007812 110.617188 0 103.328125 0 L 5.859375 0 L 5.859375 -2.15625 L 11.328125 -2.15625 C 16.796875 -2.15625 21.125 -3.585938 24.3125 -6.453125 C 27.507812 -9.316406 29.789062 -13.222656 31.15625 -18.171875 C 32.519531 -23.117188 33.203125 -28.648438 33.203125 -34.765625 L 33.203125 -160.5625 C 33.203125 -166.8125 32.519531 -172.375 31.15625 -177.25 C 29.789062 -182.132812 27.507812 -186.007812 24.3125 -188.875 C 21.125 -191.738281 16.796875 -193.171875 11.328125 -193.171875 Z M 47.859375 -160.5625 L 47.859375 -34.765625 C 47.859375 -28.648438 48.472656 -23.117188 49.703125 -18.171875 C 50.941406 -13.222656 53.742188 -9.347656 58.109375 -6.546875 C 62.472656 -3.742188 69.273438 -2.34375 78.515625 -2.34375 C 91.929688 -2.34375 104.5625 -3.835938 116.40625 -6.828125 C 128.257812 -9.828125 138.710938 -14.941406 147.765625 -22.171875 C 156.816406 -29.398438 163.910156 -39.164062 169.046875 -51.46875 C 174.191406 -63.769531 176.765625 -79.171875 176.765625 -97.671875 C 176.765625 -116.285156 174.191406 -131.710938 169.046875 -143.953125 C 163.910156 -156.191406 156.816406 -165.925781 147.765625 -173.15625 C 138.710938 -180.382812 128.257812 -185.492188 116.40625 -188.484375 C 104.5625 -191.484375 91.929688 -192.984375 78.515625 -192.984375 C 69.273438 -192.984375 62.472656 -191.582031 58.109375 -188.78125 C 53.742188 -185.976562 50.941406 -182.132812 49.703125 -177.25 C 48.472656 -172.375 47.859375 -166.8125 47.859375 -160.5625 Z M 47.859375 -160.5625 "/></g></g></g><g fill="#ffffff" fill-opacity="1"><g transform="translate(888.705079, 201.402305)"><g><path d="M 9.765625 -195.328125 L 25 -195.328125 L 67.390625 -42.1875 C 69.734375 -33.59375 71.816406 -26.660156 73.640625 -21.390625 C 75.460938 -16.117188 77.378906 -12.082031 79.390625 -9.28125 C 81.410156 -6.476562 83.953125 -4.585938 87.015625 -3.609375 C 90.078125 -2.640625 94.148438 -2.15625 99.234375 -2.15625 C 105.609375 -2.15625 111.109375 -4.460938 115.734375 -9.078125 C 120.359375 -13.703125 122.671875 -20.3125 122.671875 -28.90625 C 122.671875 -38.539062 121.820312 -47.523438 120.125 -55.859375 C 118.4375 -64.191406 116.320312 -72.234375 113.78125 -79.984375 C 111.238281 -87.734375 108.664062 -95.515625 106.0625 -103.328125 C 103.457031 -111.140625 101.304688 -119.34375 99.609375 -127.9375 C 97.921875 -136.53125 97.078125 -145.90625 97.078125 -156.0625 C 97.078125 -165.695312 99.191406 -173.738281 103.421875 -180.1875 C 107.660156 -186.632812 113.75 -189.859375 121.6875 -189.859375 C 126.894531 -189.859375 131.320312 -188.585938 134.96875 -186.046875 C 138.613281 -183.503906 141.707031 -180.148438 144.25 -175.984375 C 146.789062 -171.816406 148.9375 -167.226562 150.6875 -162.21875 C 152.445312 -157.207031 153.945312 -152.160156 155.1875 -147.078125 C 156.425781 -142.003906 157.628906 -137.316406 158.796875 -133.015625 L 194.9375 -0.984375 L 248.65625 -195.328125 L 263.890625 -195.328125 L 209.78125 0 L 179.703125 0 L 149.8125 -108.21875 C 145.90625 -122.40625 142.519531 -134.738281 139.65625 -145.21875 C 136.789062 -155.707031 133.695312 -163.847656 130.375 -169.640625 C 127.0625 -175.429688 122.601562 -178.328125 117 -178.328125 C 111.53125 -178.328125 107.425781 -175.984375 104.6875 -171.296875 C 101.957031 -166.609375 100.59375 -160.878906 100.59375 -154.109375 C 100.59375 -144.992188 101.4375 -136.269531 103.125 -127.9375 C 104.820312 -119.601562 106.90625 -111.460938 109.375 -103.515625 C 111.851562 -95.578125 114.328125 -87.632812 116.796875 -79.6875 C 119.273438 -71.75 121.359375 -63.675781 123.046875 -55.46875 C 124.742188 -47.269531 125.59375 -38.742188 125.59375 -29.890625 C 125.59375 -24.941406 124.648438 -20.1875 122.765625 -15.625 C 120.878906 -11.070312 118.207031 -7.328125 114.75 -4.390625 C 111.300781 -1.460938 107.171875 0 102.359375 0 L 63.875 0 Z M 9.765625 -195.328125 "/></g></g></g><g fill="#ffffff" fill-opacity="1"><g transform="translate(1162.356224, 201.402305)"><g><path d="M 29.296875 0 L 29.296875 -195.328125 L 43.953125 -195.328125 L 43.953125 0 Z M 29.296875 0 "/></g></g></g><g fill="#ffffff" fill-opacity="1"><g transform="translate(1235.603326, 201.402305)"><g><path d="M 5.859375 0 L 5.859375 -1.953125 C 23.828125 -1.953125 32.8125 -15.039062 32.8125 -41.21875 L 32.8125 -178.71875 L 18.75 -195.328125 L 37.890625 -195.328125 L 185.5625 -20.90625 L 185.5625 -67.96875 C 185.5625 -92.457031 184.742188 -112.804688 183.109375 -129.015625 C 181.484375 -145.222656 178.945312 -158.015625 175.5 -167.390625 C 172.050781 -176.765625 167.625 -183.4375 162.21875 -187.40625 C 156.8125 -191.382812 150.398438 -193.375 142.984375 -193.375 L 142.984375 -195.328125 L 215.453125 -195.328125 L 215.453125 -193.375 C 197.472656 -193.375 188.484375 -180.285156 188.484375 -154.109375 L 188.484375 -17.96875 L 203.734375 0 L 184.578125 0 L 35.75 -175.796875 L 35.75 -127.359375 C 35.75 -102.867188 36.5625 -82.519531 38.1875 -66.3125 C 39.8125 -50.101562 42.347656 -37.3125 45.796875 -27.9375 C 49.253906 -18.5625 53.679688 -11.882812 59.078125 -7.90625 C 64.484375 -3.9375 70.898438 -1.953125 78.328125 -1.953125 L 78.328125 0 Z M 5.859375 0 "/></g></g></g></g></g><g transform="matrix(1, 0, 0, 1, 344, 69)"><g clip-path="url(#7314a9dae4)"><g fill="#ffffff" fill-opacity="1"><g transform="translate(1.124752, 154.011266)"><g><path d="M 22.015625 -67.421875 C 22.015625 -56.535156 23.640625 -47.09375 26.890625 -39.09375 C 30.140625 -31.101562 34.5625 -24.507812 40.15625 -19.3125 C 45.75 -14.125 52.113281 -10.28125 59.25 -7.78125 C 66.394531 -5.289062 73.859375 -4.046875 81.640625 -4.046875 C 89.035156 -4.046875 96.476562 -5.144531 103.96875 -7.34375 C 111.457031 -9.539062 118.519531 -12.757812 125.15625 -17 C 131.800781 -21.25 137.722656 -26.46875 142.921875 -32.65625 C 148.117188 -38.851562 152.210938 -45.945312 155.203125 -53.9375 C 158.203125 -61.925781 159.703125 -70.765625 159.703125 -80.453125 C 159.703125 -91.640625 158.023438 -101.351562 154.671875 -109.59375 C 151.328125 -117.832031 146.785156 -124.625 141.046875 -129.96875 C 135.304688 -135.3125 128.789062 -139.304688 121.5 -141.953125 C 114.207031 -144.597656 106.613281 -145.921875 98.71875 -145.921875 C 91.332031 -145.921875 83.96875 -144.820312 76.625 -142.625 C 69.289062 -140.425781 62.351562 -137.15625 55.8125 -132.8125 C 49.269531 -128.46875 43.453125 -123.148438 38.359375 -116.859375 C 33.265625 -110.566406 29.265625 -103.273438 26.359375 -94.984375 C 23.460938 -86.691406 22.015625 -77.503906 22.015625 -67.421875 Z M 11.984375 -74.75 C 11.984375 -85.4375 14.03125 -95.425781 18.125 -104.71875 C 22.21875 -114.007812 27.859375 -122.222656 35.046875 -129.359375 C 42.242188 -136.503906 50.585938 -142.070312 60.078125 -146.0625 C 69.566406 -150.0625 79.753906 -152.0625 90.640625 -152.0625 C 101.523438 -152.0625 111.710938 -150.0625 121.203125 -146.0625 C 130.691406 -142.070312 139.03125 -136.503906 146.21875 -129.359375 C 153.40625 -122.222656 159.046875 -114.007812 163.140625 -104.71875 C 167.234375 -95.425781 169.28125 -85.4375 169.28125 -74.75 C 169.28125 -64.164062 167.234375 -54.203125 163.140625 -44.859375 C 159.046875 -35.523438 153.40625 -27.335938 146.21875 -20.296875 C 139.03125 -13.253906 130.691406 -7.734375 121.203125 -3.734375 C 111.710938 0.253906 101.523438 2.25 90.640625 2.25 C 79.753906 2.25 69.566406 0.253906 60.078125 -3.734375 C 50.585938 -7.734375 42.242188 -13.253906 35.046875 -20.296875 C 27.859375 -27.335938 22.21875 -35.523438 18.125 -44.859375 C 14.03125 -54.203125 11.984375 -64.164062 11.984375 -74.75 Z M 11.984375 -74.75 "/></g></g></g></g></g><path stroke-linecap="butt" transform="matrix(0.749092, 0.000000000000002108, -0.000000000000002108, 0.749092, 375.249983, 255.971306)" fill="none" stroke-linejoin="miter" d="M 0.0000230716 5.998646 L 161.570641 5.998646 " stroke="#ffffff" stroke-width="12" stroke-opacity="1" stroke-miterlimit="4"/><g transform="matrix(1, 0, 0, 1, 178, 315)"><g clip-path="url(#23cf053a75)"><g fill="#ffffff" fill-opacity="1"><g transform="translate(0.733169, 60.306453)"><g><path d="M 36.8125 -23.203125 C 39.40625 -22.472656 41.445312 -21.160156 42.9375 -19.265625 C 44.4375 -17.367188 45.1875 -14.972656 45.1875 -12.078125 C 45.1875 -8.203125 43.722656 -5.21875 40.796875 -3.125 C 37.878906 -1.039062 33.632812 0 28.0625 0 L 6.703125 0 L 6.703125 -44.734375 L 26.78125 -44.734375 C 31.894531 -44.734375 35.84375 -43.707031 38.625 -41.65625 C 41.414062 -39.613281 42.8125 -36.785156 42.8125 -33.171875 C 42.8125 -30.828125 42.269531 -28.800781 41.1875 -27.09375 C 40.101562 -25.394531 38.644531 -24.097656 36.8125 -23.203125 Z M 13.09375 -39.5625 L 13.09375 -25.25 L 26.203125 -25.25 C 29.484375 -25.25 32.003906 -25.851562 33.765625 -27.0625 C 35.535156 -28.28125 36.421875 -30.0625 36.421875 -32.40625 C 36.421875 -34.75 35.535156 -36.523438 33.765625 -37.734375 C 32.003906 -38.953125 29.484375 -39.5625 26.203125 -39.5625 Z M 27.796875 -5.171875 C 31.421875 -5.171875 34.148438 -5.765625 35.984375 -6.953125 C 37.816406 -8.148438 38.734375 -10.03125 38.734375 -12.59375 C 38.734375 -17.570312 35.085938 -20.0625 27.796875 -20.0625 L 13.09375 -20.0625 L 13.09375 -5.171875 Z M 27.796875 -5.171875 "/></g></g></g><g fill="#ffffff" fill-opacity="1"><g transform="translate(65.79517, 60.306453)"><g><path d="M 36.625 0 L 26.96875 -13.734375 C 25.769531 -13.648438 24.832031 -13.609375 24.15625 -13.609375 L 13.09375 -13.609375 L 13.09375 0 L 6.703125 0 L 6.703125 -44.734375 L 24.15625 -44.734375 C 29.945312 -44.734375 34.503906 -43.347656 37.828125 -40.578125 C 41.148438 -37.804688 42.8125 -33.992188 42.8125 -29.140625 C 42.8125 -25.691406 41.957031 -22.75 40.25 -20.3125 C 38.550781 -17.882812 36.125 -16.117188 32.96875 -15.015625 L 43.578125 0 Z M 23.96875 -19.046875 C 28.007812 -19.046875 31.09375 -19.914062 33.21875 -21.65625 C 35.351562 -23.40625 36.421875 -25.898438 36.421875 -29.140625 C 36.421875 -32.378906 35.351562 -34.859375 33.21875 -36.578125 C 31.09375 -38.304688 28.007812 -39.171875 23.96875 -39.171875 L 13.09375 -39.171875 L 13.09375 -19.046875 Z M 23.96875 -19.046875 "/></g></g></g><g fill="#ffffff" fill-opacity="1"><g transform="translate(128.939955, 60.306453)"><g><path d="M 6.703125 -44.734375 L 13.09375 -44.734375 L 13.09375 0 L 6.703125 0 Z M 6.703125 -44.734375 "/></g></g></g><g fill="#ffffff" fill-opacity="1"><g transform="translate(165.435418, 60.306453)"><g><path d="M 26.71875 0.515625 C 22.238281 0.515625 18.195312 -0.472656 14.59375 -2.453125 C 11 -4.441406 8.175781 -7.171875 6.125 -10.640625 C 4.082031 -14.109375 3.0625 -18.015625 3.0625 -22.359375 C 3.0625 -26.710938 4.082031 -30.625 6.125 -34.09375 C 8.175781 -37.5625 11.007812 -40.285156 14.625 -42.265625 C 18.25 -44.253906 22.300781 -45.25 26.78125 -45.25 C 30.269531 -45.25 33.460938 -44.660156 36.359375 -43.484375 C 39.253906 -42.316406 41.726562 -40.582031 43.78125 -38.28125 L 39.625 -34.25 C 36.257812 -37.789062 32.0625 -39.5625 27.03125 -39.5625 C 23.707031 -39.5625 20.703125 -38.8125 18.015625 -37.3125 C 15.335938 -35.820312 13.238281 -33.765625 11.71875 -31.140625 C 10.207031 -28.523438 9.453125 -25.597656 9.453125 -22.359375 C 9.453125 -19.128906 10.207031 -16.203125 11.71875 -13.578125 C 13.238281 -10.960938 15.335938 -8.90625 18.015625 -7.40625 C 20.703125 -5.914062 23.707031 -5.171875 27.03125 -5.171875 C 32.019531 -5.171875 36.21875 -6.960938 39.625 -10.546875 L 43.78125 -6.515625 C 41.726562 -4.210938 39.242188 -2.460938 36.328125 -1.265625 C 33.410156 -0.078125 30.207031 0.515625 26.71875 0.515625 Z M 26.71875 0.515625 "/></g></g></g><g fill="#ffffff" fill-opacity="1"><g transform="translate(228.324577, 60.306453)"><g><path d="M 21.28125 -19.875 L 13.09375 -11.5625 L 13.09375 0 L 6.703125 0 L 6.703125 -44.734375 L 13.09375 -44.734375 L 13.09375 -19.75 L 37.390625 -44.734375 L 44.671875 -44.734375 L 25.5625 -24.609375 L 45.890625 0 L 38.40625 0 Z M 21.28125 -19.875 "/></g></g></g><g fill="#ffffff" fill-opacity="1"><g transform="translate(290.958064, 60.306453)"><g/></g></g><g fill="#ffffff" fill-opacity="1"><g transform="translate(324.833352, 60.306453)"><g><path d="M 39.4375 0.703125 L 33.484375 -5.234375 C 29.523438 -1.398438 24.539062 0.515625 18.53125 0.515625 C 15.550781 0.515625 12.867188 0.0234375 10.484375 -0.953125 C 8.097656 -1.929688 6.234375 -3.304688 4.890625 -5.078125 C 3.546875 -6.847656 2.875 -8.863281 2.875 -11.125 C 2.875 -13.84375 3.710938 -16.253906 5.390625 -18.359375 C 7.078125 -20.472656 9.859375 -22.640625 13.734375 -24.859375 C 11.773438 -26.816406 10.390625 -28.582031 9.578125 -30.15625 C 8.773438 -31.738281 8.375 -33.378906 8.375 -35.078125 C 8.375 -38.109375 9.46875 -40.539062 11.65625 -42.375 C 13.851562 -44.207031 16.785156 -45.125 20.453125 -45.125 C 23.859375 -45.125 26.5625 -44.289062 28.5625 -42.625 C 30.5625 -40.96875 31.5625 -38.6875 31.5625 -35.78125 C 31.5625 -33.53125 30.828125 -31.507812 29.359375 -29.71875 C 27.890625 -27.925781 25.453125 -26.050781 22.046875 -24.09375 L 33.109375 -13.09375 C 34.378906 -15.53125 35.289062 -18.238281 35.84375 -21.21875 L 40.765625 -19.625 C 40.003906 -15.695312 38.707031 -12.285156 36.875 -9.390625 L 42.875 -3.390625 Z M 20.453125 -40.640625 C 18.453125 -40.640625 16.882812 -40.140625 15.75 -39.140625 C 14.625 -38.140625 14.0625 -36.832031 14.0625 -35.21875 C 14.0625 -34.0625 14.367188 -32.953125 14.984375 -31.890625 C 15.597656 -30.828125 16.800781 -29.378906 18.59375 -27.546875 C 21.53125 -29.203125 23.5625 -30.625 24.6875 -31.8125 C 25.820312 -33.007812 26.390625 -34.3125 26.390625 -35.71875 C 26.390625 -37.207031 25.867188 -38.398438 24.828125 -39.296875 C 23.785156 -40.191406 22.328125 -40.640625 20.453125 -40.640625 Z M 18.921875 -4.59375 C 23.347656 -4.59375 26.988281 -6 29.84375 -8.8125 L 17.125 -21.46875 C 14.0625 -19.769531 11.921875 -18.179688 10.703125 -16.703125 C 9.492188 -15.234375 8.890625 -13.585938 8.890625 -11.765625 C 8.890625 -9.628906 9.8125 -7.898438 11.65625 -6.578125 C 13.507812 -5.253906 15.929688 -4.59375 18.921875 -4.59375 Z M 18.921875 -4.59375 "/></g></g></g><g fill="#ffffff" fill-opacity="1"><g transform="translate(385.357914, 60.306453)"><g/></g></g><g fill="#ffffff" fill-opacity="1"><g transform="translate(419.233202, 60.306453)"><g><path d="M 36.8125 -23.203125 C 39.40625 -22.472656 41.445312 -21.160156 42.9375 -19.265625 C 44.4375 -17.367188 45.1875 -14.972656 45.1875 -12.078125 C 45.1875 -8.203125 43.722656 -5.21875 40.796875 -3.125 C 37.878906 -1.039062 33.632812 0 28.0625 0 L 6.703125 0 L 6.703125 -44.734375 L 26.78125 -44.734375 C 31.894531 -44.734375 35.84375 -43.707031 38.625 -41.65625 C 41.414062 -39.613281 42.8125 -36.785156 42.8125 -33.171875 C 42.8125 -30.828125 42.269531 -28.800781 41.1875 -27.09375 C 40.101562 -25.394531 38.644531 -24.097656 36.8125 -23.203125 Z M 13.09375 -39.5625 L 13.09375 -25.25 L 26.203125 -25.25 C 29.484375 -25.25 32.003906 -25.851562 33.765625 -27.0625 C 35.535156 -28.28125 36.421875 -30.0625 36.421875 -32.40625 C 36.421875 -34.75 35.535156 -36.523438 33.765625 -37.734375 C 32.003906 -38.953125 29.484375 -39.5625 26.203125 -39.5625 Z M 27.796875 -5.171875 C 31.421875 -5.171875 34.148438 -5.765625 35.984375 -6.953125 C 37.816406 -8.148438 38.734375 -10.03125 38.734375 -12.59375 C 38.734375 -17.570312 35.085938 -20.0625 27.796875 -20.0625 L 13.09375 -20.0625 L 13.09375 -5.171875 Z M 27.796875 -5.171875 "/></g></g></g><g fill="#ffffff" fill-opacity="1"><g transform="translate(484.295203, 60.306453)"><g><path d="M 6.703125 -44.734375 L 13.09375 -44.734375 L 13.09375 -5.5625 L 37.328125 -5.5625 L 37.328125 0 L 6.703125 0 Z M 6.703125 -44.734375 "/></g></g></g><g fill="#ffffff" fill-opacity="1"><g transform="translate(538.109487, 60.306453)"><g><path d="M 26.90625 0.515625 C 22.382812 0.515625 18.3125 -0.472656 14.6875 -2.453125 C 11.070312 -4.441406 8.226562 -7.179688 6.15625 -10.671875 C 4.09375 -14.160156 3.0625 -18.054688 3.0625 -22.359375 C 3.0625 -26.671875 4.09375 -30.570312 6.15625 -34.0625 C 8.226562 -37.550781 11.070312 -40.285156 14.6875 -42.265625 C 18.3125 -44.253906 22.382812 -45.25 26.90625 -45.25 C 31.375 -45.25 35.421875 -44.253906 39.046875 -42.265625 C 42.671875 -40.285156 45.503906 -37.5625 47.546875 -34.09375 C 49.585938 -30.625 50.609375 -26.710938 50.609375 -22.359375 C 50.609375 -18.015625 49.585938 -14.109375 47.546875 -10.640625 C 45.503906 -7.171875 42.671875 -4.441406 39.046875 -2.453125 C 35.421875 -0.472656 31.375 0.515625 26.90625 0.515625 Z M 26.90625 -5.171875 C 30.1875 -5.171875 33.132812 -5.914062 35.75 -7.40625 C 38.375 -8.90625 40.441406 -10.960938 41.953125 -13.578125 C 43.460938 -16.203125 44.21875 -19.128906 44.21875 -22.359375 C 44.21875 -25.597656 43.460938 -28.523438 41.953125 -31.140625 C 40.441406 -33.765625 38.375 -35.820312 35.75 -37.3125 C 33.132812 -38.8125 30.1875 -39.5625 26.90625 -39.5625 C 23.625 -39.5625 20.648438 -38.8125 17.984375 -37.3125 C 15.328125 -35.820312 13.238281 -33.765625 11.71875 -31.140625 C 10.207031 -28.523438 9.453125 -25.597656 9.453125 -22.359375 C 9.453125 -19.128906 10.207031 -16.203125 11.71875 -13.578125 C 13.238281 -10.960938 15.328125 -8.90625 17.984375 -7.40625 C 20.648438 -5.914062 23.625 -5.171875 26.90625 -5.171875 Z M 26.90625 -5.171875 "/></g></g></g><g fill="#ffffff" fill-opacity="1"><g transform="translate(608.475757, 60.306453)"><g><path d="M 26.71875 0.515625 C 22.238281 0.515625 18.195312 -0.472656 14.59375 -2.453125 C 11 -4.441406 8.175781 -7.171875 6.125 -10.640625 C 4.082031 -14.109375 3.0625 -18.015625 3.0625 -22.359375 C 3.0625 -26.710938 4.082031 -30.625 6.125 -34.09375 C 8.175781 -37.5625 11.007812 -40.285156 14.625 -42.265625 C 18.25 -44.253906 22.300781 -45.25 26.78125 -45.25 C 30.269531 -45.25 33.460938 -44.660156 36.359375 -43.484375 C 39.253906 -42.316406 41.726562 -40.582031 43.78125 -38.28125 L 39.625 -34.25 C 36.257812 -37.789062 32.0625 -39.5625 27.03125 -39.5625 C 23.707031 -39.5625 20.703125 -38.8125 18.015625 -37.3125 C 15.335938 -35.820312 13.238281 -33.765625 11.71875 -31.140625 C 10.207031 -28.523438 9.453125 -25.597656 9.453125 -22.359375 C 9.453125 -19.128906 10.207031 -16.203125 11.71875 -13.578125 C 13.238281 -10.960938 15.335938 -8.90625 18.015625 -7.40625 C 20.703125 -5.914062 23.707031 -5.171875 27.03125 -5.171875 C 32.019531 -5.171875 36.21875 -6.960938 39.625 -10.546875 L 43.78125 -6.515625 C 41.726562 -4.210938 39.242188 -2.460938 36.328125 -1.265625 C 33.410156 -0.078125 30.207031 0.515625 26.71875 0.515625 Z M 26.71875 0.515625 "/></g></g></g><g fill="#ffffff" fill-opacity="1"><g transform="translate(671.364916, 60.306453)"><g><path d="M 21.28125 -19.875 L 13.09375 -11.5625 L 13.09375 0 L 6.703125 0 L 6.703125 -44.734375 L 13.09375 -44.734375 L 13.09375 -19.75 L 37.390625 -44.734375 L 44.671875 -44.734375 L 25.5625 -24.609375 L 45.890625 0 L 38.40625 0 Z M 21.28125 -19.875 "/></g></g></g><g fill="#ffffff" fill-opacity="1"><g transform="translate(767.873736, 60.306453)"><g><path d="M 39.4375 0.703125 L 33.484375 -5.234375 C 29.523438 -1.398438 24.539062 0.515625 18.53125 0.515625 C 15.550781 0.515625 12.867188 0.0234375 10.484375 -0.953125 C 8.097656 -1.929688 6.234375 -3.304688 4.890625 -5.078125 C 3.546875 -6.847656 2.875 -8.863281 2.875 -11.125 C 2.875 -13.84375 3.710938 -16.253906 5.390625 -18.359375 C 7.078125 -20.472656 9.859375 -22.640625 13.734375 -24.859375 C 11.773438 -26.816406 10.390625 -28.582031 9.578125 -30.15625 C 8.773438 -31.738281 8.375 -33.378906 8.375 -35.078125 C 8.375 -38.109375 9.46875 -40.539062 11.65625 -42.375 C 13.851562 -44.207031 16.785156 -45.125 20.453125 -45.125 C 23.859375 -45.125 26.5625 -44.289062 28.5625 -42.625 C 30.5625 -40.96875 31.5625 -38.6875 31.5625 -35.78125 C 31.5625 -33.53125 30.828125 -31.507812 29.359375 -29.71875 C 27.890625 -27.925781 25.453125 -26.050781 22.046875 -24.09375 L 33.109375 -13.09375 C 34.378906 -15.53125 35.289062 -18.238281 35.84375 -21.21875 L 40.765625 -19.625 C 40.003906 -15.695312 38.707031 -12.285156 36.875 -9.390625 L 42.875 -3.390625 Z M 20.453125 -40.640625 C 18.453125 -40.640625 16.882812 -40.140625 15.75 -39.140625 C 14.625 -38.140625 14.0625 -36.832031 14.0625 -35.21875 C 14.0625 -34.0625 14.367188 -32.953125 14.984375 -31.890625 C 15.597656 -30.828125 16.800781 -29.378906 18.59375 -27.546875 C 21.53125 -29.203125 23.5625 -30.625 24.6875 -31.8125 C 25.820312 -33.007812 26.390625 -34.3125 26.390625 -35.71875 C 26.390625 -37.207031 25.867188 -38.398438 24.828125 -39.296875 C 23.785156 -40.191406 22.328125 -40.640625 20.453125 -40.640625 Z M 18.921875 -4.59375 C 23.347656 -4.59375 26.988281 -6 29.84375 -8.8125 L 17.125 -21.46875 C 14.0625 -19.769531 11.921875 -18.179688 10.703125 -16.703125 C 9.492188 -15.234375 8.890625 -13.585938 8.890625 -11.765625 C 8.890625 -9.628906 9.8125 -7.898438 11.65625 -6.578125 C 13.507812 -5.253906 15.929688 -4.59375 18.921875 -4.59375 Z M 18.921875 -4.59375 "/></g></g></g><g fill="#ffffff" fill-opacity="1"><g transform="translate(828.398209, 60.306453)"><g/></g></g><g fill="#ffffff" fill-opacity="1"><g transform="translate(862.273589, 60.306453)"><g><path d="M 45.1875 -44.734375 L 45.1875 0 L 38.796875 0 L 38.796875 -19.9375 L 13.09375 -19.9375 L 13.09375 0 L 6.703125 0 L 6.703125 -44.734375 L 13.09375 -44.734375 L 13.09375 -25.5 L 38.796875 -25.5 L 38.796875 -44.734375 Z M 45.1875 -44.734375 "/></g></g></g><g fill="#ffffff" fill-opacity="1"><g transform="translate(930.850434, 60.306453)"><g><path d="M 39.171875 -5.5625 L 39.171875 0 L 6.703125 0 L 6.703125 -44.734375 L 38.28125 -44.734375 L 38.28125 -39.171875 L 13.09375 -39.171875 L 13.09375 -25.4375 L 35.53125 -25.4375 L 35.53125 -20 L 13.09375 -20 L 13.09375 -5.5625 Z M 39.171875 -5.5625 "/></g></g></g><g fill="#ffffff" fill-opacity="1"><g transform="translate(990.352495, 60.306453)"><g><path d="M 36.625 0 L 26.96875 -13.734375 C 25.769531 -13.648438 24.832031 -13.609375 24.15625 -13.609375 L 13.09375 -13.609375 L 13.09375 0 L 6.703125 0 L 6.703125 -44.734375 L 24.15625 -44.734375 C 29.945312 -44.734375 34.503906 -43.347656 37.828125 -40.578125 C 41.148438 -37.804688 42.8125 -33.992188 42.8125 -29.140625 C 42.8125 -25.691406 41.957031 -22.75 40.25 -20.3125 C 38.550781 -17.882812 36.125 -16.117188 32.96875 -15.015625 L 43.578125 0 Z M 23.96875 -19.046875 C 28.007812 -19.046875 31.09375 -19.914062 33.21875 -21.65625 C 35.351562 -23.40625 36.421875 -25.898438 36.421875 -29.140625 C 36.421875 -32.378906 35.351562 -34.859375 33.21875 -36.578125 C 31.09375 -38.304688 28.007812 -39.171875 23.96875 -39.171875 L 13.09375 -39.171875 L 13.09375 -19.046875 Z M 23.96875 -19.046875 "/></g></g></g><g fill="#ffffff" fill-opacity="1"><g transform="translate(1053.497235, 60.306453)"><g><path d="M 6.703125 -44.734375 L 13.09375 -44.734375 L 13.09375 0 L 6.703125 0 Z M 6.703125 -44.734375 "/></g></g></g><g fill="#ffffff" fill-opacity="1"><g transform="translate(1089.99279, 60.306453)"><g><path d="M 15.59375 -39.171875 L 0.25 -39.171875 L 0.25 -44.734375 L 37.25 -44.734375 L 37.25 -39.171875 L 21.921875 -39.171875 L 21.921875 0 L 15.59375 0 Z M 15.59375 -39.171875 "/></g></g></g><g fill="#ffffff" fill-opacity="1"><g transform="translate(1141.953547, 60.306453)"><g><path d="M 35.21875 -11.1875 L 11.4375 -11.1875 L 6.515625 0 L -0.0625 0 L 20.1875 -44.734375 L 26.515625 -44.734375 L 46.84375 0 L 40.140625 0 Z M 32.96875 -16.296875 L 23.328125 -38.21875 L 13.671875 -16.296875 Z M 32.96875 -16.296875 "/></g></g></g><g fill="#ffffff" fill-opacity="1"><g transform="translate(1204.778697, 60.306453)"><g><path d="M 37.703125 -22.625 L 43.84375 -22.625 L 43.84375 -5.171875 C 41.625 -3.335938 39.046875 -1.929688 36.109375 -0.953125 C 33.171875 0.0234375 30.101562 0.515625 26.90625 0.515625 C 22.382812 0.515625 18.3125 -0.472656 14.6875 -2.453125 C 11.070312 -4.441406 8.226562 -7.171875 6.15625 -10.640625 C 4.09375 -14.109375 3.0625 -18.015625 3.0625 -22.359375 C 3.0625 -26.710938 4.09375 -30.632812 6.15625 -34.125 C 8.226562 -37.613281 11.082031 -40.335938 14.71875 -42.296875 C 18.363281 -44.265625 22.46875 -45.25 27.03125 -45.25 C 30.613281 -45.25 33.863281 -44.660156 36.78125 -43.484375 C 39.695312 -42.316406 42.175781 -40.601562 44.21875 -38.34375 L 40.265625 -34.375 C 36.679688 -37.832031 32.351562 -39.5625 27.28125 -39.5625 C 23.875 -39.5625 20.816406 -38.820312 18.109375 -37.34375 C 15.410156 -35.875 13.289062 -33.828125 11.75 -31.203125 C 10.21875 -28.585938 9.453125 -25.640625 9.453125 -22.359375 C 9.453125 -19.128906 10.21875 -16.203125 11.75 -13.578125 C 13.289062 -10.960938 15.410156 -8.90625 18.109375 -7.40625 C 20.816406 -5.914062 23.851562 -5.171875 27.21875 -5.171875 C 31.226562 -5.171875 34.722656 -6.128906 37.703125 -8.046875 Z M 37.703125 -22.625 "/></g></g></g><g fill="#ffffff" fill-opacity="1"><g transform="translate(1270.799284, 60.306453)"><g><path d="M 39.171875 -5.5625 L 39.171875 0 L 6.703125 0 L 6.703125 -44.734375 L 38.28125 -44.734375 L 38.28125 -39.171875 L 13.09375 -39.171875 L 13.09375 -25.4375 L 35.53125 -25.4375 L 35.53125 -20 L 13.09375 -20 L 13.09375 -5.5625 Z M 39.171875 -5.5625 "/></g></g></g></g></g></svg>